<svg width="320" height="331" viewBox="0 0 320 331" fill="none" xmlns="http://www.w3.org/2000/svg">
<path fill-rule="evenodd" clip-rule="evenodd" d="M22.5 78.5493L1.5 99.5493L12 109.049H40.5L46.5 123.049L44.5 129.049L22.5 135.049L31.5 139.549L61 131.549L82 139.549L94 154.549L90 180.549L50.5 206.049H12L15.5 213.549L31.5 209.049V216.549H40.5L46.5 224.049L121.5 175.549L128.5 180.549L118.5 209.049L94 213.549L71 220.049L86.5 232.549L124.5 224.049L151.5 175.549L171.5 160.549L217 206.049L203.5 229.549L182.5 232.549L145 237.549L161.5 244.049H217L229.135 226.714L236 232.549L275.5 229.549L284 213.549L296 180.549L318 213.549V160.549L314 109.049L296 78.5493L290.5 60.0493L275.5 32.0493L247 10.0493L217 6.54932L171.5 18.0493L141 44.5493L121.5 60.0493L86.5 67.5493L22.5 78.5493ZM236 217.049H268.5C272.833 212.383 281.4 202.749 281 201.549C280.833 201.049 280.833 199.938 280.833 198.568C280.833 195.827 280.833 192.049 279.5 190.049C277.5 187.049 270 172.049 270 170.549C270 169.349 254 164.716 246 162.549L229.5 175.549V192.049C229.5 193.649 239.167 203.049 244 207.549L236 217.049Z" fill="#101010"/>
<path d="M92.5 151.549L76.5 132.049L94 147.549L119.5 161.549L92.5 151.549Z" fill="#F9F9F9"/>
<path d="M295.5 180.549L314.5 174.049L301 182.549L315.5 180.549L320 222.049L315.5 273.549L293 307.549L256 326.549L219.5 330.549L185.5 322.049L140 294.549L92.5 269.049L55.5 263.549L21.5 276.049L12 290.549L19.5 271.549L55.5 256.049L92.5 260.549L145.5 288.549L188.5 313.549L238 316.549L268 307.549L295.5 280.549L305 249.549V207.549L295.5 180.549Z" fill="#F9F9F9"/>
<path d="M16.5 126.049C19.3333 129.883 25.2 137.749 26 138.549V135.549L29 137.549V134.549L34.5 137.549V132.549L37 134.549L45 132.549L49 122.049L45 113.549L35 108.049L32.5 111.549L31.5 107.049L27.5 106.049L25.5 113.549L22.5 105.049H15V115.549C15 116.349 10.3333 108.883 8 105.049L7 97.5493L3 95.0493V91.0493L29 79.5493L44 77.0493L54.5 70.0493L94 73.0493L103.5 68.5493L111 70.0493L125 61.5493L131 50.5493L145 45.0493L154.5 31.5493L167.5 27.0493L185 14.0493L205.5 8.0493H224.5L250 13.0493L277 36.0493L268.5 34.5493L284 50.5493L289.5 61.5493L282.5 67.5493L306.5 86.0493L290.5 67.5493L297.5 68.5493L288.5 52.0493L293 53.5493L279.5 40.5493L287 42.0493L252.5 9.0493L227 4.5493L233 0.0493062L213 4.5493L219.5 0.0493062L190 9.0493C191.667 6.38264 195.1 0.849306 195.5 0.0493062C195.9 -0.750694 184 8.38264 178 13.0493V7.04931L161.5 27.0493L150.5 30.5493L143 42.0493L129.5 47.5493L121.5 58.0493L109.5 66.5493L102.5 59.5493L92 66.5493H53.5L41 74.5493L27.5 76.0493L1.5 89.5493L0 96.5493L6 99.5493V105.049L18 122.049L16.5 107.549H21.5L25.5 118.049L27.5 109.549H31V117.049L34.5 111.549L42.5 114.549L46.5 122.049L42.5 131.549L37 132.549L32.5 129.549V134.549L27.5 129.549V134.549L16.5 126.049Z" fill="#F9F9F9"/>
<path d="M168.5 245.049L207.5 243.549L168.5 242.049L156.5 243.549L159 239.549H145.5L148.5 236.549L162.5 233.549L196.5 234.549L207.5 221.049H220L207.5 218.049L196.5 231.049L163.5 230.049L141 234.549L135 242.049L143 238.049L135 248.049L143 243.549H153L145.5 250.549L168.5 245.049Z" fill="#F9F9F9"/>
<path d="M208.5 217.049L219 220.049L210.5 216.049L215.5 208.549L214 195.049L184.5 173.549L170.5 152.049L163.5 115.049L165 102.049L180.5 90.0493L215 86.5493L231 75.0493L230 65.0493L228.5 72.0493L214 81.5493L180.5 85.5493L160.5 99.5493L159 115.049L165 152.049L182 176.049L211 196.549L214 208.549L208.5 217.049Z" fill="#F9F9F9"/>
<path d="M61 132.049L79 138.049L61 130.549L36 139.049L31 139.549L34.5 141.049L61 132.049Z" fill="#F9F9F9"/>
<path d="M92 154.549L100.5 158.549L94 157.549L95 172.049L90.5 180.049L81.5 190.549L75 194.549L59 202.549L41 207.049L19 205.549L11.5 208.049L7 211.549L12.5 209.549L8 216.549L13.5 212.049L24.5 210.549H39L20.5 219.049L18 223.549L24.5 219.549L42.5 213.549L41.5 222.049L39 224.049H44L52.5 216.549L62.5 213.549L83 198.049L122 173.049L97.5 190.049L76 205.549L62.5 215.549L52.5 218.049L44 226.049H33L40 222.049L41 215.549L24.5 221.049L14.5 227.549L19 218.049L33 211.549L14.5 213.549L3 221.049L9.5 211.549L1.5 215.549L9.5 207.049L19 204.049L41 205.549L58.5 201.049L79.5 190.049L93 173.049L92 154.549Z" fill="#F9F9F9"/>
<path d="M280 170.549L288.5 175.549L280.5 168.549L264 167.549L248.5 160.549L264 170.549H280Z" fill="#F9F9F9"/>
<path d="M271 180.549L268.5 170.049L271 168.549L274 180.549L281.5 192.049L279.5 202.549V192.049L271 180.549Z" fill="#F9F9F9"/>
<path d="M124.5 164.049L113.5 147.549L127.5 162.549V196.549L111.5 216.549H105L92.5 214.549H84L75 216.549H82.5L71 224.049L86.5 219.049L79.5 228.049L80.5 232.049L102.5 226.049L118.5 223.049L131.5 204.549L147 185.049L149 177.049L157.5 164.049L151.5 175.049L149 186.049L135.5 202.549L120 226.049L104 228.049L85.5 233.549L75 238.049L77.5 231.049L69.5 238.049L72 231.049L82.5 221.049L72 226.049L62.5 233.549L68 223.049L78.5 217.549L62.5 222.049L75 213.549L86.5 212.049L109.5 214.549L124.5 196.549V164.049Z" fill="#F9F9F9"/>
<path d="M269.5 215.049L276.5 206.049L269.5 216.549L246 218.549L233.5 216.549H245L269.5 215.049Z" fill="#F9F9F9"/>
<path d="M275 228.549L285.5 211.549L275 226.049L251.5 231.549L275 228.549Z" fill="#F9F9F9"/>
<path d="M235 228.549C234.989 228.571 234.974 228.597 234.955 228.625L232 233.549L242 231.549L226 236.549C228.755 234.281 234.283 229.617 234.955 228.625L235 228.549Z" fill="#F9F9F9"/>
<path d="M237.5 236.549L244.5 229.549L243.5 233.049L252 230.549L237.5 236.549Z" fill="#F9F9F9"/>
<path d="M228.5 220.049L234 218.049L229 221.049L223.5 226.049L221 232.049L222 226.049L228.5 220.049Z" fill="#F9F9F9"/>
<path d="M223.5 230.549C226.5 227.383 232.6 221.049 233 221.049L225.5 231.549L222 239.549L223.5 230.549Z" fill="#F9F9F9"/>
<path d="M242.5 205.049L236.5 212.049L239.5 205.049L228 194.049V175.549L241.5 163.049L230 175.549V192.549L242.5 205.049Z" fill="#F9F9F9"/>
<path d="M318 124.549V175.549L315 124.549L308.5 90.0493L318 124.549Z" fill="#F9F9F9"/>
<path d="M52 82.5L77 77L66.2241 86.3077L57.1724 88L52 82.5Z" fill="#F9F9F9"/>
</svg>
