<svg width="73" height="77" viewBox="0 0 73 77" fill="none" xmlns="http://www.w3.org/2000/svg">
<path d="M68.8761 24.0025L66.8159 32.1422V40.6181L70.1595 51.6167L72.7601 38.5328L68.8761 24.0025Z" fill="#F3F3F3"/>
<path d="M3.884 24.0025L5.9442 32.1422V40.6181L2.60059 51.6167L0 38.5328L3.884 24.0025Z" fill="#F3F3F3"/>
<path fill-rule="evenodd" clip-rule="evenodd" d="M17.1931 5.30464L36.2671 0.0104652V0L36.2859 0.00523261L36.3048 0V0.0104652L55.3788 5.30464L67.6811 20.1651L65.2733 30.3606V41.0451L69.3364 56.0561V61.2855L55.3788 65.0476L51.7672 71.669L44.9953 72.8729L36.2859 70.7331L27.5766 72.8729L20.8047 71.669L17.1931 65.0476L3.23547 61.2855V56.0561L7.2986 41.0451V30.3606L4.89082 20.1651L17.1931 5.30464ZM57.3728 33.1446L49.5099 30.4735L43.3776 34.6495L42.5875 45.1835L50.789 51.2029L57.3728 50.4881L62.0002 41.7223L57.3728 33.1446ZM21.971 30.4735L14.1081 33.1446L9.48064 41.7223L14.1081 50.4881L20.6919 51.2029L28.8933 45.1835L28.1033 34.6495L21.971 30.4735ZM39.7284 45.6725L36.2672 43.7162V59.442H36.8315L40.5184 61.5488L45.8983 61.1726L44.6944 54.5136L39.7284 45.6725ZM32.806 45.6725L36.2671 43.7162V59.442H35.7028L32.0159 61.5488L26.636 61.1726L27.8399 54.5136L32.806 45.6725Z" fill="#F3F3F3"/>
<path d="M22.5583 35.5147L17.4992 37.2308L14.5219 42.7417L17.4992 48.3735L21.7353 48.8327L27.0122 44.9654L26.5039 38.1977L22.5583 35.5147Z" fill="#F3F3F3"/>
<path d="M48.5464 35.5147L53.6055 37.2308L56.5828 42.7417L53.6055 48.3735L49.3694 48.8327L44.0925 44.9654L44.6008 38.1977L48.5464 35.5147Z" fill="#F3F3F3"/>
<path d="M33.7842 72.413L36.0415 71.6314V75.8741L34.8752 76.8232L33.6713 76.5598L33.7842 72.413Z" fill="#F3F3F3"/>
<path d="M30.3229 72.7172L33.1821 72.0829V75.5262L31.7049 76.2965H30.3229V72.7172Z" fill="#F3F3F3"/>
<path d="M49.2843 72.4793L51.5415 72.0829V74.235L50.3753 74.7164H49.2843V72.4793Z" fill="#F3F3F3"/>
<path d="M38.9007 72.1006L36.6434 71.3304V75.5117L37.8097 76.4469H38.9007V72.1006Z" fill="#F3F3F3"/>
<path d="M42.5123 73.0295L39.6531 72.3839V75.8887L41.1304 76.6727H42.5123V73.0295Z" fill="#F3F3F3"/>
<path d="M45 73.6022L43 73V76.2688L44.0333 77H45V73.6022Z" fill="#F3F3F3"/>
<path d="M46 73.6022L49 73V76.2688L47.45 77H46V73.6022Z" fill="#F3F3F3"/>
<path d="M26.937 73.311L24.6797 72.8353V75.4178L25.846 75.9955H26.937V73.311Z" fill="#F3F3F3"/>
<path d="M24.153 72.7803L21.8957 72.3838V74.5359L23.062 75.0173H24.153V72.7803Z" fill="#F3F3F3"/>
</svg>
